<svg xmlns="http://www.w3.org/2000/svg" width="34" height="34" viewBox="0 0 34 34" fill="none">
<path d="M16.1673 30.3333L24.2673 14.1167H18.6673V3.66667L10.334 19.8833H16.1673V30.3333ZM17.0007 0.333332C21.584 0.333332 25.5007 2 28.7507 5.25C32.0007 8.5 33.6673 12.4167 33.6673 17C33.6673 21.5833 32.0007 25.5 28.7507 28.75C25.5007 32 21.584 33.6667 17.0007 33.6667C12.4173 33.6667 8.50065 32 5.25065 28.75C2.00065 25.5 0.333984 21.5833 0.333984 17C0.333984 12.4167 2.00065 8.5 5.25065 5.25C8.50065 2 12.4173 0.333332 17.0007 0.333332Z" fill="black"/>
</svg>