<svg xmlns="http://www.w3.org/2000/svg" width="30" height="30" viewBox="0 0 30 30" fill="none">
<path d="M16.875 8.90625C16.875 7.04145 17.6158 5.25302 18.9344 3.93441C20.253 2.61579 22.0414 1.875 23.9063 1.875H24.375C24.6236 1.875 24.8621 1.97377 25.0379 2.14959C25.2137 2.3254 25.3125 2.56386 25.3125 2.8125V14.0625C25.3125 14.2106 25.35 14.6887 25.4231 15.4369C25.4925 16.1587 25.5872 17.0709 25.6884 18.0431L25.7006 18.1584C25.9538 20.5941 26.25 23.4516 26.25 24.375C26.25 25.3696 25.8549 26.3234 25.1517 27.0266C24.4484 27.7299 23.4946 28.125 22.5 28.125C21.5054 28.125 20.5516 27.7299 19.8484 27.0266C19.1451 26.3234 18.75 25.3696 18.75 24.375C18.75 23.5894 18.9628 21.2184 19.1794 18.9956C19.3284 17.4628 19.4831 15.9581 19.5834 15H19.2188C18.5972 15 18.001 14.7531 17.5615 14.3135C17.1219 13.874 16.875 13.2779 16.875 12.6562V8.90625ZM14.0381 2.59969C13.9878 2.38401 13.8628 2.1931 13.6852 2.06079C13.5076 1.92849 13.2889 1.86334 13.0678 1.87688C12.5709 1.905 12.1781 2.31469 12.1781 2.81813V8.44312C12.1819 8.69052 12.0872 8.92927 11.9149 9.10684C11.7426 9.28442 11.5068 9.38627 11.2594 9.39C11.012 9.39373 10.7732 9.29903 10.5957 9.12673C10.4181 8.95443 10.3162 8.71865 10.3125 8.47125V2.8125C10.3125 2.56386 10.2137 2.3254 10.0379 2.14959C9.8621 1.97377 9.62364 1.875 9.375 1.875C9.12636 1.875 8.88791 1.97377 8.71209 2.14959C8.53627 2.3254 8.4375 2.56386 8.4375 2.8125V8.49844C8.42218 8.73999 8.31357 8.96613 8.13461 9.1291C7.95565 9.29206 7.72035 9.37908 7.47842 9.37178C7.23649 9.36448 7.00687 9.26342 6.83806 9.08997C6.66925 8.91651 6.57448 8.68423 6.57375 8.44219V2.81906C6.57311 2.58818 6.48789 2.36554 6.3342 2.19325C6.1805 2.02096 5.969 1.91096 5.7397 1.88405C5.51039 1.85715 5.27917 1.91521 5.08978 2.04725C4.90038 2.17929 4.76594 2.37616 4.71188 2.60062C4.69125 2.68687 3.75 6.69375 3.75 9.375C3.74927 10.2224 3.94035 11.059 4.3089 11.8221C4.67745 12.5852 5.21393 13.255 5.87813 13.7812C6.34313 14.1506 6.5625 14.5528 6.5625 14.8894C6.56235 14.9251 6.56016 14.9608 6.55594 14.9963C6.49969 15.4688 6.26813 17.4281 6.05063 19.4522C5.83688 21.4425 5.625 23.5875 5.625 24.375C5.625 25.3696 6.02009 26.3234 6.72335 27.0266C7.42661 27.7299 8.38044 28.125 9.375 28.125C10.3696 28.125 11.3234 27.7299 12.0267 27.0266C12.7299 26.3234 13.125 25.3696 13.125 24.375C13.125 23.5884 12.9131 21.4425 12.6994 19.4522C12.4819 17.4281 12.2494 15.4678 12.1931 14.9963C12.1892 14.9608 12.1873 14.9251 12.1875 14.8894C12.1875 14.5528 12.4069 14.1506 12.8719 13.7812C13.5361 13.255 14.0726 12.5852 14.4411 11.8221C14.8097 11.059 15.0007 10.2224 15 9.375C15 6.69187 14.0559 2.6775 14.0381 2.59969ZM13.0256 1.87969L13.0444 1.87875H13.0369L13.0294 1.87969H13.0256Z" fill="black"/>
</svg>