<svg xmlns="http://www.w3.org/2000/svg" width="40" height="40" viewBox="0 0 40 40" fill="none">
<path fill-rule="evenodd" clip-rule="evenodd" d="M12.6534 18.8033C10.9538 17.1037 9.99902 14.7986 9.99902 12.395C9.99902 9.99141 10.9538 7.68626 12.6534 5.98667C14.353 4.28707 16.6582 3.33225 19.0618 3.33225C21.4654 3.33225 23.7705 4.28707 25.4701 5.98667L28.6734 9.19167L28.5134 10.0167L28.5118 10.0317L28.4901 10.1217C28.4555 10.2584 28.4166 10.394 28.3734 10.5283C28.1984 11.0699 27.9839 11.598 27.7318 12.1083C27.0851 13.4517 25.9384 15.3133 23.9584 17.2917C21.9784 19.2733 20.1184 20.4183 18.7751 21.0667C18.1034 21.39 17.5584 21.5883 17.1951 21.705C17.0314 21.7581 16.8657 21.8048 16.6984 21.845L16.6834 21.8483L15.8584 22.0067L12.6534 18.8033ZM22.5501 7.45C22.4357 7.32719 22.2977 7.22869 22.1443 7.16037C21.991 7.09205 21.8255 7.05531 21.6576 7.05235C21.4898 7.04939 21.3231 7.08026 21.1674 7.14313C21.0118 7.206 20.8704 7.29957 20.7517 7.41827C20.633 7.53697 20.5394 7.67836 20.4766 7.834C20.4137 7.98965 20.3828 8.15637 20.3858 8.3242C20.3888 8.49204 20.4255 8.65757 20.4938 8.8109C20.5621 8.96423 20.6606 9.10223 20.7834 9.21667L23.2834 11.7167C23.3979 11.8395 23.5359 11.938 23.6892 12.0063C23.8425 12.0746 24.0081 12.1114 24.1759 12.1143C24.3437 12.1173 24.5105 12.0864 24.6661 12.0235C24.8218 11.9607 24.9631 11.8671 25.0818 11.7484C25.2005 11.6297 25.2941 11.4883 25.357 11.3327C25.4198 11.177 25.4507 11.0103 25.4478 10.8425C25.4448 10.6746 25.4081 10.5091 25.3397 10.3558C25.2714 10.2024 25.1729 10.0644 25.0501 9.95L22.5501 7.45Z" fill="black"/>
<path d="M30.7534 11.29L30.7584 11.2767L34.0134 14.53C34.8549 15.3716 35.5225 16.3706 35.978 17.4702C36.4334 18.5697 36.6678 19.7482 36.6678 20.9383C36.6678 22.1285 36.4334 23.307 35.978 24.4065C35.5225 25.506 34.8549 26.5051 34.0134 27.3467C33.1718 28.1882 32.1728 28.8558 31.0732 29.3112C29.9737 29.7667 28.7952 30.0011 27.6051 30.0011C26.4149 30.0011 25.2364 29.7667 24.1369 29.3112C23.0374 28.8558 22.0383 28.1882 21.1967 27.3467L17.9434 24.0917L17.9551 24.0867C18.6069 23.8744 19.2434 23.6177 19.8601 23.3183C21.4317 22.56 23.5301 21.2583 25.7267 19.0617C27.9234 16.8633 29.2267 14.7667 29.9834 13.195C30.3617 12.41 30.6051 11.7567 30.7534 11.29ZM8.81006 17.7467C7.40229 18.4619 6.18392 19.5004 5.25468 20.7771C4.32545 22.0538 3.71176 23.5324 3.46385 25.0919C3.21595 26.6514 3.34087 28.2474 3.8284 29.7494C4.31593 31.2513 5.15221 32.6164 6.26878 33.7329C7.38534 34.8495 8.75046 35.6858 10.2524 36.1733C11.7543 36.6609 13.3503 36.7858 14.9098 36.5379C16.4693 36.29 17.9479 35.6763 19.2246 34.747C20.5013 33.8178 21.5398 32.5994 22.2551 31.1917C21.214 30.6452 20.2616 29.9445 19.4301 29.1133L10.8867 20.57C10.0563 19.7388 9.35616 18.787 8.81006 17.7467Z" fill="black"/>
</svg>