<svg xmlns="http://www.w3.org/2000/svg" width="40" height="40" viewBox="0 0 40 40" fill="none">
<path d="M18.1858 18.8075C17.8917 18.9425 17.5719 19.0124 17.2483 19.0125C16.9248 19.0128 16.605 18.9424 16.3114 18.8064C16.0178 18.6704 15.7574 18.472 15.5483 18.225C15.5107 18.1882 15.4812 18.1439 15.4619 18.095C15.4425 18.046 15.4336 17.9936 15.4359 17.941C15.4381 17.8884 15.4514 17.8369 15.4749 17.7897C15.4983 17.7426 15.5315 17.701 15.5721 17.6675C15.6126 17.6341 15.6598 17.6096 15.7104 17.5955C15.7611 17.5815 15.8141 17.5783 15.8661 17.586C15.9181 17.5938 15.9678 17.6124 16.0121 17.6407C16.0565 17.6689 16.0943 17.7062 16.1233 17.75C16.2637 17.9105 16.4366 18.0392 16.6306 18.1276C16.8246 18.2159 17.0352 18.2619 17.2483 18.2625C17.4639 18.2654 17.6774 18.221 17.8739 18.1325C18.0705 18.0439 18.2452 17.9134 18.3858 17.75C18.4207 17.7074 18.4646 17.673 18.5143 17.6492C18.5639 17.6254 18.6183 17.6129 18.6733 17.6125C18.743 17.6153 18.8106 17.6375 18.8684 17.6765C18.9262 17.7156 18.9719 17.77 19.0005 17.8336C19.029 17.8973 19.0393 17.9676 19.0301 18.0367C19.0209 18.1059 18.9926 18.1711 18.9483 18.225C18.739 18.4718 18.4789 18.6704 18.1858 18.8075ZM24.7233 18.8075C24.4292 18.9425 24.1094 19.0124 23.7858 19.0125C23.4623 19.0128 23.1425 18.9424 22.8489 18.8064C22.5553 18.6704 22.2949 18.472 22.0858 18.225C22.0482 18.1882 22.0187 18.1439 21.9994 18.095C21.98 18.046 21.9711 17.9936 21.9734 17.941C21.9756 17.8884 21.9889 17.8369 22.0124 17.7897C22.0358 17.7426 22.069 17.701 22.1096 17.6675C22.1501 17.6341 22.1973 17.6096 22.2479 17.5955C22.2986 17.5815 22.3516 17.5783 22.4036 17.586C22.4556 17.5938 22.5053 17.6124 22.5496 17.6407C22.594 17.6689 22.6318 17.7062 22.6608 17.75C22.8012 17.9105 22.9741 18.0392 23.1681 18.1276C23.3621 18.2159 23.5727 18.2619 23.7858 18.2625C24.0014 18.2654 24.2149 18.221 24.4114 18.1325C24.608 18.0439 24.7827 17.9134 24.9233 17.75C24.9582 17.7074 25.0021 17.673 25.0518 17.6492C25.1014 17.6254 25.1558 17.6129 25.2108 17.6125C25.2821 17.6118 25.3521 17.6318 25.4121 17.6702C25.4721 17.7086 25.5197 17.7637 25.5489 17.8287C25.5781 17.8938 25.5876 17.9659 25.5764 18.0363C25.5653 18.1067 25.5338 18.1723 25.4858 18.225C25.2765 18.4718 25.0164 18.6704 24.7233 18.8075ZM21.0733 21.275C21.1894 21.274 21.3037 21.246 21.4071 21.1933C21.5105 21.1406 21.6003 21.0646 21.6694 20.9713C21.7385 20.878 21.7849 20.7699 21.8051 20.6556C21.8253 20.5413 21.8187 20.4238 21.7858 20.3125L21.0608 17.975C21.0259 17.8631 20.9561 17.7653 20.8617 17.6959C20.7672 17.6264 20.6531 17.589 20.5358 17.589C20.4186 17.589 20.3044 17.6264 20.21 17.6959C20.1156 17.7653 20.0458 17.8631 20.0108 17.975L19.2858 20.3125C19.2529 20.4238 19.2463 20.5413 19.2665 20.6556C19.2867 20.7699 19.3332 20.878 19.4023 20.9713C19.4714 21.0646 19.5611 21.1406 19.6646 21.1933C19.768 21.246 19.8823 21.274 19.9983 21.275H21.0733ZM20.5233 22.6625C21.2372 22.6656 21.941 22.4939 22.5733 22.1625C22.6166 22.1394 22.6662 22.131 22.7147 22.1387C22.7631 22.1464 22.8077 22.1697 22.8417 22.2051C22.8757 22.2405 22.8971 22.286 22.9029 22.3348C22.9086 22.3835 22.8982 22.4327 22.8733 22.475C22.4888 23.0659 21.8961 23.4905 21.2129 23.6644C20.5297 23.8383 19.8061 23.7488 19.1858 23.4138C18.774 23.192 18.4255 22.8689 18.1733 22.475C18.1485 22.4327 18.1381 22.3835 18.1438 22.3348C18.1495 22.286 18.171 22.2405 18.205 22.2051C18.2389 22.1697 18.2835 22.1464 18.332 22.1387C18.3804 22.131 18.4301 22.1394 18.4733 22.1625C19.1038 22.4989 19.8088 22.6708 20.5233 22.6625Z" fill="black"/>
<path d="M33.5366 30.9775C34.7981 32.8081 35.6477 34.8906 36.0266 37.0813C36.0875 37.4399 36.0695 37.8075 35.9737 38.1584C35.8778 38.5093 35.7066 38.8351 35.4719 39.1131C35.2372 39.391 34.9446 39.6143 34.6147 39.7675C34.2848 39.9207 33.9254 40 33.5616 40H7.49909C6.95014 39.9995 6.41647 39.8192 5.97967 39.4867C5.54288 39.1542 5.227 38.6877 5.08034 38.1588C4.98445 37.8073 4.96653 37.4391 5.02784 37.08C5.40823 34.8893 6.25775 32.8067 7.51818 30.9749C8.77861 29.1432 10.4202 27.6056 12.3303 26.4675C11.7514 25.5183 11.3966 24.4495 11.2928 23.3425V23.2763L11.2278 22.3587C10.6036 21.95 10.0841 21.4002 9.71131 20.7539C9.33851 20.1075 9.12281 19.3825 9.08159 18.6375C8.85414 18.1259 8.73661 17.5723 8.73659 17.0125L8.72409 2.5C8.72409 1.83696 8.98748 1.20107 9.45633 0.732233C9.92517 0.263392 10.5611 0 11.2241 0L15.4366 0C16.0996 0 16.7355 0.263392 17.2044 0.732233C17.6732 1.20107 17.9366 1.83696 17.9366 2.5V3.75H18.1966C18.9088 3.75141 19.613 3.90126 20.2641 4.19C20.4573 4.23982 20.6611 4.23068 20.8491 4.16375C21.5786 3.90764 22.353 3.80467 23.1241 3.86125V2.5C23.1241 1.83696 23.3875 1.20107 23.8563 0.732233C24.3252 0.263392 24.9611 0 25.6241 0L29.8366 0C30.4996 0 31.1355 0.263392 31.6044 0.732233C32.0732 1.20107 32.3366 1.83696 32.3366 2.5L32.3241 17C32.3253 17.56 32.2078 18.1138 31.9791 18.625C31.941 19.3737 31.7262 20.1028 31.3523 20.7526C30.9784 21.4025 30.456 21.9545 29.8278 22.3638L29.7628 23.2812V23.3475C29.6583 24.4547 29.3026 25.5235 28.7228 26.4725C30.6328 27.61 32.2766 29.1475 33.5366 30.9775ZM29.8366 2.5H25.6241L25.6216 6.685C25.6183 6.97417 25.5741 7.25667 25.4891 7.5325L25.5003 7.54375C25.4953 7.56125 25.4883 7.57833 25.4791 7.595L25.4603 7.63875L25.4478 7.6825C25.4445 7.7 25.4399 7.7175 25.4341 7.735L25.4241 7.725C25.2817 8.1408 25.0515 8.52107 24.7491 8.84L22.4828 11.1137C22.3155 11.2755 22.19 11.4756 22.1172 11.6967C22.0444 11.9178 22.0264 12.1533 22.0649 12.3829C22.1035 12.6125 22.1972 12.8293 22.3382 13.0145C22.4792 13.1998 22.6631 13.3479 22.8741 13.4462C23.0466 13.525 23.2328 13.5675 23.4216 13.5725C23.6146 13.5813 23.8073 13.5494 23.9872 13.4787C24.167 13.4081 24.3299 13.3003 24.4653 13.1625L25.2691 12.3462C25.4108 12.2065 25.5907 12.1117 25.7861 12.0737C25.9815 12.0357 26.1838 12.0562 26.3676 12.1327C26.5514 12.2092 26.7085 12.3382 26.8193 12.5036C26.9301 12.669 26.9896 12.8634 26.9903 13.0625V17.0537C26.9898 17.2446 27.0279 17.4337 27.1025 17.6094C27.177 17.7852 27.2864 17.944 27.4241 18.0763C27.7078 18.3375 28.0803 18.4813 28.4653 18.4788C28.6544 18.4714 28.8399 18.425 29.0103 18.3427C29.1806 18.2603 29.3321 18.1436 29.4553 18V17.9825C29.6925 17.7101 29.8235 17.3612 29.8241 17L29.8366 2.5ZM25.1503 14.2087C25.357 14.3012 25.5541 14.4112 25.7416 14.5387V13.6487L25.3403 14.0562C25.3043 14.0897 25.2663 14.121 25.2266 14.15L25.1503 14.2087ZM15.4366 6.6875V2.5H11.2241L11.2416 12.1163V17.0212C11.2424 17.0437 11.2466 17.0654 11.2541 17.0863C11.2599 17.1087 11.2637 17.1308 11.2653 17.1525C11.2753 17.2925 11.3045 17.4292 11.3528 17.5625C11.3845 17.625 11.4203 17.685 11.4603 17.7425C11.5753 17.9524 11.7418 18.1295 11.944 18.2575C12.1463 18.3854 12.3777 18.4598 12.6166 18.4738C13.0028 18.4762 13.3741 18.3325 13.6578 18.0712C13.7955 17.939 13.9049 17.7802 13.9794 17.6044C14.054 17.4287 14.0921 17.2397 14.0916 17.0487V13.0613C14.0929 12.8624 14.1528 12.6684 14.2636 12.5034C14.3745 12.3384 14.5315 12.2096 14.7151 12.1333C14.8986 12.0569 15.1006 12.0362 15.2958 12.0739C15.4911 12.1115 15.6709 12.2058 15.8128 12.345L16.6166 13.1613C16.752 13.2991 16.9149 13.4068 17.0948 13.4775C17.2746 13.5481 17.4673 13.5801 17.6603 13.5713C17.8494 13.5663 18.0354 13.5231 18.2073 13.4442C18.3792 13.3654 18.5333 13.2525 18.6603 13.1125C18.9119 12.8365 19.0462 12.4734 19.0348 12.1001C19.0234 11.7268 18.8671 11.3726 18.5991 11.1125L16.3266 8.84C16.0177 8.51513 15.7838 8.1264 15.6416 7.70125L15.6191 7.72375C15.4977 7.39178 15.4359 7.04097 15.4366 6.6875ZM15.3366 14.5175C15.5224 14.3958 15.7166 14.2904 15.9191 14.2013L15.8578 14.1537C15.8157 14.1217 15.7756 14.0871 15.7378 14.05L15.3366 13.6425V14.5175ZM11.9616 19.625C12.0208 19.7167 12.0858 19.8033 12.1566 19.885C12.5316 20.3013 13.0491 20.565 13.6078 20.6238L13.7828 23.0988C13.8378 23.7675 14.0391 24.4163 14.3741 24.9988C14.4316 25.0979 14.4933 25.1929 14.5591 25.2837L14.5903 25.33L14.6241 25.38C14.6683 25.4433 14.712 25.5042 14.7553 25.5625C14.802 25.6208 14.8508 25.6779 14.9016 25.7337L14.9366 25.7725C15.0333 25.8817 15.1345 25.9854 15.2403 26.0838L15.3778 26.2087C15.5195 26.3287 15.6678 26.4396 15.8228 26.5413L15.8953 26.5913C16.0101 26.6627 16.1277 26.7294 16.2478 26.7913V26.785L17.9578 27.1975C18.1045 27.2325 18.2528 27.2617 18.4028 27.285H22.7453C23.0089 27.2444 23.2692 27.1846 23.5241 27.1062L25.1103 26.6162C25.1923 26.5648 25.2728 26.5111 25.3516 26.455C25.6773 26.2335 25.9717 25.969 26.2266 25.6688L26.2378 25.6575C26.8429 24.9343 27.207 24.0402 27.2791 23.1L27.4541 20.625C28.013 20.5662 28.5305 20.3026 28.9066 19.885C28.9741 19.8058 29.0353 19.7225 29.0903 19.635C28.9013 19.6881 28.7066 19.7187 28.5103 19.7262H28.4241C27.7144 19.7256 27.0339 19.4435 26.532 18.9417C26.03 18.44 25.7476 17.7597 25.7466 17.05V15.7763C25.6221 15.8692 25.4719 15.9211 25.3166 15.925C25.1505 15.925 24.9886 15.8725 24.8541 15.775C24.3299 15.4322 23.6996 15.2902 23.0791 15.375C22.9789 15.3872 22.8772 15.3793 22.78 15.3519C22.6828 15.3244 22.5921 15.278 22.513 15.2152C22.4339 15.1524 22.3681 15.0745 22.3194 14.9861C22.2706 14.8976 22.2399 14.8004 22.2291 14.7C22.2266 14.6388 22.2317 14.5775 22.2441 14.5175C21.8917 14.3388 21.5839 14.0834 21.343 13.7702C21.1022 13.457 20.9345 13.0939 20.8523 12.7074C20.7701 12.321 20.7754 11.921 20.8678 11.5369C20.9603 11.1528 21.1375 10.7942 21.3866 10.4875L21.1091 10.4775C20.91 10.4688 20.7108 10.4638 20.5116 10.4625C20.3191 10.4625 20.1428 10.47 19.9678 10.4775L19.6966 10.4887C19.947 10.7978 20.1247 11.1592 20.2164 11.5462C20.3081 11.9332 20.3115 12.3359 20.2264 12.7244C20.1413 13.1129 19.9698 13.4773 19.7247 13.7905C19.4795 14.1037 19.167 14.3578 18.8103 14.5337C18.8228 14.5887 18.8274 14.6442 18.8241 14.7C18.7981 14.901 18.6948 15.0839 18.5361 15.21C18.3773 15.336 18.1758 15.3952 17.9741 15.375C17.3522 15.2961 16.7225 15.4425 16.1991 15.7875C16.0663 15.8774 15.9095 15.9253 15.7491 15.925C15.6013 15.9216 15.4578 15.8747 15.3366 15.79V17.05C15.3353 17.7595 15.0527 18.4395 14.5508 18.9409C14.0488 19.4424 13.3686 19.7243 12.6591 19.725H12.5728C12.3657 19.7171 12.1604 19.6835 11.9616 19.625ZM25.1641 28.0025L25.1403 28.3787C25.066 29.4718 24.5844 30.4973 23.7906 31.2524C22.9968 32.0076 21.9486 32.4375 20.8532 32.4573C19.7578 32.4771 18.6948 32.0853 17.8743 31.3593C17.0537 30.6333 16.5354 29.6259 16.4216 28.5363L16.3878 28.2C16.0354 28.0758 15.6959 27.9176 15.3741 27.7275C13.3452 28.5623 11.5599 29.8955 10.1833 31.6038C8.80672 33.312 7.88348 35.3401 7.49909 37.5H33.5616C33.1777 35.3405 32.2557 33.3126 30.8809 31.6037C29.506 29.8947 27.7225 28.5599 25.6953 27.7225C25.5228 27.825 25.3458 27.9183 25.1641 28.0025ZM22.9166 28.5238C22.58 28.5764 22.2397 28.6015 21.8991 28.5987H19.2491C18.9119 28.5985 18.5751 28.5734 18.2416 28.5238C18.0521 28.5219 17.8627 28.5115 17.6741 28.4925C17.767 29.2565 18.1387 29.9594 18.718 30.4662C19.2972 30.973 20.0431 31.2482 20.8127 31.2389C21.5823 31.2296 22.3214 30.9365 22.8882 30.4158C23.455 29.8951 23.8096 29.1835 23.8841 28.4175C23.5658 28.48 23.2433 28.5154 22.9166 28.5238Z" fill="black"/>
</svg>