<svg xmlns="http://www.w3.org/2000/svg" width="40" height="40" viewBox="0 0 40 40" fill="none">
<path d="M20 3.59375C16.4786 3.59375 13.5938 6.47859 13.5938 10C13.5938 12.0166 14.5409 13.8231 16.0108 15H10L2.5 37.5H37.5L30 15H23.9892C25.4591 13.8231 26.4062 12.0166 26.4062 10C26.4062 6.47859 23.5214 3.59375 20 3.59375ZM20 6.40625C22.0014 6.40625 23.5938 7.99859 23.5938 10C23.5938 12.0014 22.0014 13.5938 20 13.5938C17.9986 13.5938 16.4062 12.0014 16.4062 10C16.4062 7.99859 17.9986 6.40625 20 6.40625ZM13.577 22.2617H15.4129V24.8604L18.0592 22.2616H20.1907L16.7623 25.6327L20.5436 29.3807H18.2453L15.4129 26.577V29.3807H13.577V22.2617ZM22.9468 23.9211C23.3187 23.921 23.6461 23.9941 23.9291 24.1403C24.2119 24.2865 24.471 24.517 24.7064 24.8317V24.0403H26.423V28.842C26.423 29.7003 26.1511 30.3552 25.6075 30.8066C25.0671 31.2611 24.2819 31.4884 23.2519 31.4884C22.9182 31.4884 22.5956 31.4629 22.2839 31.4121C21.965 31.3595 21.6509 31.2814 21.3445 31.1785V29.848C21.6435 30.0198 21.9359 30.147 22.2219 30.2296C22.5081 30.3154 22.7959 30.3584 23.0852 30.3584C23.6446 30.3584 24.0547 30.236 24.3153 29.9912C24.576 29.7465 24.7064 29.3635 24.7064 28.8421V28.4749C24.4712 28.7864 24.2121 29.0152 23.9291 29.1615C23.6461 29.3076 23.3187 29.3808 22.9468 29.3809C22.2951 29.3809 21.7563 29.125 21.3304 28.6132C20.9043 28.0982 20.6913 27.4434 20.6913 26.6487C20.6913 25.8507 20.9043 25.1974 21.3304 24.6888C21.7563 24.1771 22.2951 23.9211 22.9468 23.9211ZM23.581 25.1513C23.2281 25.1513 22.9531 25.2816 22.756 25.5423C22.5589 25.803 22.4604 26.1718 22.4604 26.6487C22.4604 27.1382 22.5558 27.5101 22.7465 27.7643C22.9373 28.0155 23.2154 28.1411 23.581 28.1411C23.937 28.141 24.2136 28.0107 24.4107 27.75C24.6078 27.4893 24.7064 27.1222 24.7063 26.6486C24.7063 26.1717 24.6078 25.803 24.4106 25.5423C24.2135 25.2816 23.937 25.1513 23.5809 25.1513H23.581Z" fill="black"/>
</svg>